<svg width="99" height="39" viewBox="0 0 99 39" fill="none" xmlns="http://www.w3.org/2000/svg">
<g clip-path="url(#clip0_20288_10206)">
<path d="M92.4649 9.1438C92.6995 9.27981 93.5697 8.96906 93.6588 9.71268C93.7291 10.3024 92.7728 10.8425 92.7747 11.0848C92.7747 11.2198 93.9192 13.0446 94.0984 13.4477C98.8613 24.1145 89.5968 36.9358 77.8941 33.036C64.9845 28.7341 65.6062 9.26393 79.0316 5.67488C79.6662 5.50511 81.0462 5.32342 81.1977 5.30456C82.2708 5.17351 83.7162 5.29066 84.3865 5.4237C86.9149 5.92408 88.1693 6.78485 90.0493 8.16984C90.2215 8.18374 90.7542 7.07575 91.4897 7.29318C92.0293 7.45203 91.7699 8.34458 91.9174 8.58782C91.9521 8.64441 92.1936 8.78042 92.2916 8.87077C92.3728 8.94523 92.4352 9.12593 92.4659 9.1438H92.4649ZM88.2772 11.7827L91.3392 8.66625C91.4561 8.53321 91.4571 8.38826 91.4689 8.22345C91.5244 7.46394 91.3422 7.51061 90.8908 7.97128C90.274 8.60072 88.5613 10.2726 88.3623 11.0093C88.292 11.2704 88.2504 11.5107 88.2762 11.7827H88.2772ZM90.5502 13.2749C90.474 13.2302 88.8979 13.3534 88.788 13.401C88.688 13.4447 87.8198 14.4524 87.795 14.5447C87.9069 14.9548 88.2643 15.346 88.4544 15.7411C90.3839 19.7451 89.1167 24.6278 84.9518 26.5162C80.3057 28.6229 75.2151 24.9902 74.8597 20.1006C74.4607 14.6083 79.5097 9.94004 84.8696 12.2047C85.5576 12.4956 86.1497 12.9542 86.8041 13.3007C87.0783 13.0446 87.7545 12.578 87.8465 12.2146C87.8921 12.0349 87.903 10.6767 87.8535 10.5268C81.6808 6.1981 73.845 9.78516 72.1699 16.9087C70.1839 25.3536 77.8198 33.184 86.2041 29.5731C91.5511 27.2707 93.6014 20.6516 91.5867 15.3886C91.4858 15.1265 90.6571 13.3385 90.5492 13.2749H90.5502ZM81.7125 19.5297C81.6749 19.7253 81.8333 19.9129 82.0303 19.8891C82.0847 19.8822 82.1382 19.8603 82.1877 19.8156C85.4082 16.4629 88.6118 13.0972 91.7481 9.66801C91.8441 9.56376 91.8699 9.40392 91.7927 9.28478C91.7283 9.1855 91.6135 9.13288 91.467 9.20138C91.3363 9.26194 90.4651 10.1972 90.279 10.3898C87.3971 13.3683 84.7369 16.5761 81.7293 19.4384L81.7115 19.5307L81.7125 19.5297ZM93.1351 10.0562C93.1955 9.94103 93.1203 9.80104 92.9916 9.78814C92.3164 9.72162 92.2194 10.1654 91.7956 10.5983C91.0185 11.3925 90.1631 12.1014 89.4216 12.9294C89.9641 12.981 90.3869 12.9205 90.8036 12.5541C91.1135 12.2811 92.9925 10.3491 93.1074 10.1098C93.1163 10.0909 93.1262 10.0731 93.1351 10.0562ZM81.4709 15.1643C78.4524 15.5296 76.9635 19.3153 78.5108 21.8519C81.1323 26.1498 87.006 23.224 86.1289 18.6451C86.0804 18.3899 85.6487 16.9692 85.3804 17.0288C84.827 17.7823 83.8737 18.4366 83.3707 19.1961C83.0668 19.6548 83.0916 20.1224 82.5936 20.4659C81.3947 21.291 79.9622 19.2497 81.4462 18.4158C81.6422 18.3056 81.858 18.2857 82.0362 18.1874C82.354 18.0127 84.3627 16.0975 84.3469 15.9188C83.547 15.2894 82.4797 15.0431 81.4719 15.1653L81.4709 15.1643Z" fill="#00A63E"/>
<path d="M25.4558 5.88529C25.4558 5.88529 25.4499 9.90919 25.4558 10.4721C25.0638 10.4483 17.6913 10.5506 13.7164 10.633C10.8682 10.6915 9.38914 11.7608 9.67327 14.8534C9.78811 16.1004 10.4672 17.1091 11.7661 17.262C13.6669 17.4864 15.5747 17.3653 17.4854 17.4318C21.383 17.5658 24.5381 17.545 25.4321 22.0871C25.9419 24.6754 25.8796 28.4124 24.5708 30.7594C23.1185 33.3626 21.1187 33.4073 17.8942 33.4073H5.66377C5.65981 32.8493 5.58259 28.4918 5.58259 28.4918C6.24688 28.4918 6.4231 28.4958 6.84682 28.4879C10.4138 28.4283 14.0065 28.5027 17.5616 28.5772C20.0198 28.6288 21.0543 27.4732 20.8761 25.012C20.7563 23.3589 19.9376 22.246 18.2219 22.1C13.5125 21.6989 6.86662 23.5188 5.27965 17.5331C4.25401 13.665 4.84009 5.8833 10.2861 5.8833H25.4568L25.4558 5.88529Z" fill="#00A63E"/>
<path d="M49.1734 5.88527C49.1734 5.88527 57.5408 5.74131 60.5861 5.88527C65.6668 6.12553 66.2796 7.24742 67.126 10.7987C68.1358 15.0341 67.4181 19.7957 63.2541 21.9541L63.2324 22.0613L68.2319 33.4519C67.7329 33.5274 67.2201 33.5522 66.7172 33.5582C66.0806 33.5661 65.4193 33.5413 64.7649 33.4797C62.9799 33.31 62.5473 31.7502 61.8622 30.3246C60.9326 28.3895 60.001 25.8032 59.112 23.9864C58.6447 23.0313 57.4161 23.209 56.334 23.209C55.9994 23.209 53.6561 23.1802 52.8542 23.209C52.8542 23.209 52.8542 33.3626 52.8532 33.4083H48.419C48.419 33.3407 48.3536 26.8278 48.519 23.7005C48.615 21.8915 48.6328 20.445 50.1168 19.1573C52.3938 17.1806 57.3874 17.9967 60.3287 17.5896C63.5462 17.1449 63.4571 12.1122 60.5871 11.042C59.205 10.5267 55.9291 10.5069 54.3709 10.4691C52.6413 10.4274 50.9039 10.5069 49.1744 10.4721V5.88527H49.1734Z" fill="#00A63E"/>
<path d="M33.0582 23.2091L33.0622 33.4083H28.6082C28.6082 33.4083 28.4814 28.2427 28.5606 25.6643C28.7032 21.5372 29.4982 19.1177 34.0809 18.8248C38.0508 18.5706 43.3097 20.2048 42.88 14.1149C42.684 11.3369 40.8208 10.8286 38.4181 10.638C35.7144 10.4235 29.2269 10.4682 28.4824 10.4732V5.88635H34.7363C37.9696 5.88635 40.9406 5.66991 43.5334 6.49793C48.1359 7.96829 48.4042 14.9995 47.2518 18.7464C45.7876 23.5059 41.5088 23.2101 37.1964 23.2101H33.0582V23.2091Z" fill="#00A63E"/>
</g>
<defs>
<clipPath id="clip0_20288_10206">
<rect width="99" height="39" fill="white"/>
</clipPath>
</defs>
</svg>
